<?xml version="1.0" encoding="UTF-8" standalone="no"?>
<!-- Created with Inkscape (http://www.inkscape.org/) -->

<svg
   width="100mm"
   height="100mm"
   viewBox="0 0 100 100"
   version="1.1"
   id="svg1"
   inkscape:version="1.4.2 (f4327f4, 2025-05-13)"
   sodipodi:docname="fontanna.svg"
   xmlns:inkscape="http://www.inkscape.org/namespaces/inkscape"
   xmlns:sodipodi="http://sodipodi.sourceforge.net/DTD/sodipodi-0.dtd"
   xmlns="http://www.w3.org/2000/svg"
   xmlns:svg="http://www.w3.org/2000/svg">
  <sodipodi:namedview
     id="namedview1"
     pagecolor="#ffffff"
     bordercolor="#000000"
     borderopacity="0.25"
     inkscape:showpageshadow="2"
     inkscape:pageopacity="0.0"
     inkscape:pagecheckerboard="true"
     inkscape:deskcolor="#d1d1d1"
     inkscape:document-units="mm"
     inkscape:zoom="0.920955"
     inkscape:cx="162.87441"
     inkscape:cy="212.27964"
     inkscape:window-width="1920"
     inkscape:window-height="991"
     inkscape:window-x="2091"
     inkscape:window-y="607"
     inkscape:window-maximized="1"
     inkscape:current-layer="svg1" />
  <defs
     id="defs1" />
  <g
     id="g2"
     transform="matrix(1.0050604,0,0,1.0050604,-99.114213,-156.97349)">
    <path
       id="path1-8"
       style="fill:#000080;stroke:#000080;stroke-width:4.30001;stroke-linecap:round"
       d="m 148.36317,158.63336 a 35.144321,35.144321 0 0 0 -35.1441,35.1441 35.144321,35.144321 0 0 0 35.1441,35.14412 35.144321,35.144321 0 0 0 35.14463,-35.14412 35.144321,35.144321 0 0 0 -35.14463,-35.1441 z m 5.2e-4,3.35173 a 31.792406,31.792406 0 0 1 31.79237,31.79237 31.792406,31.792406 0 0 1 -31.79237,31.79238 31.792406,31.792406 0 0 1 -31.79289,-31.79238 31.792406,31.792406 0 0 1 31.79289,-31.79237 z" />
    <path
       id="path2-2"
       style="fill:#000080;stroke:#000080;stroke-width:3.68164;stroke-linecap:round"
       inkscape:transform-center-y="7.0389796"
       d="m 117.45811,210.03387 30.98619,42.23367 30.98568,-42.23367 h -4.01117 a 32.148918,24.386906 0 0 1 -27.13232,11.30552 32.148918,24.386906 0 0 1 -27.13179,-11.30552 z" />
    <path
       style="fill:#000080;fill-opacity:1;stroke:#000080;stroke-width:3.78711;stroke-linecap:round;stroke-opacity:1"
       d="m 116.75409,209.34054 c 20.9533,26.95805 20.9533,26.95805 20.9533,26.95805"
       id="path4-45" />
    <circle
       style="fill:#ffffff;stroke:#ffffff;stroke-width:9.60987"
       id="path3-5"
       cx="148.69476"
       cy="193.47278"
       r="27.721392" />
    <path
       style="fill:#000080;fill-opacity:1;stroke:#000080;stroke-width:3.78711;stroke-linecap:round;stroke-opacity:1"
       d="m 180.49878,208.29104 c -20.95329,26.95805 -20.95329,26.95805 -20.95329,26.95805"
       id="path4-8" />
  </g>
  <g
     inkscape:label="Warstwa 1"
     inkscape:groupmode="layer"
     id="layer1">
    <rect
       style="fill:#000080;stroke:#160d81;stroke-width:1.37358;stroke-linecap:round;stroke-opacity:1"
       id="rect1"
       width="45.99807"
       height="2.4012246"
       x="27.000965"
       y="56.299698" />
    <rect
       style="fill:#000080;stroke:#160d81;stroke-width:1.37358;stroke-linecap:round;stroke-opacity:1"
       id="rect2"
       width="37.580837"
       height="0.26121882"
       x="31.209581"
       y="51.790001" />
    <rect
       style="fill:#000080;stroke:#160d81;stroke-width:1.37358;stroke-linecap:round;stroke-opacity:1"
       id="rect3"
       width="35.863953"
       height="0.13060941"
       x="32.068024"
       y="54.140953" />
    <rect
       style="fill:#000080;stroke:#160d81;stroke-width:1.1439;stroke-linecap:round;stroke-opacity:1"
       id="rect4"
       width="10.3273"
       height="6.1992984"
       x="44.836349"
       y="43.354683" />
    <path
       id="path4"
       style="fill:#000080;stroke:#160d81;stroke-width:1.56323;stroke-linecap:round;stroke-opacity:1"
       d="m 36.538211,35.370404 a 13.462296,8.3201562 0 0 0 4.414239,6.09709 h 18.095448 a 13.462296,8.3201562 0 0 0 4.413918,-6.09709 z" />
    <g
       id="g8"
       transform="matrix(0.62528948,0,0,0.62528948,-15.507735,-51.513756)"
       style="stroke:#160d81;stroke-opacity:1">
      <path
         style="fill:none;stroke:#160d81;stroke-width:4.28574;stroke-linecap:round;stroke-dasharray:none;stroke-opacity:1"
         d="m 64.918635,134.45733 c 0,0 16.906828,-40.992917 39.377925,-0.76621"
         id="path7" />
      <path
         style="fill:none;stroke:#160d81;stroke-width:4.28574;stroke-linecap:round;stroke-dasharray:none;stroke-opacity:1"
         d="m 105.23115,133.73048 c 0,0 16.90682,-40.992922 39.37792,-0.76621"
         id="path7-8" />
    </g>
    <g
       id="g9"
       transform="translate(0.47788428)"
       style="stroke:#160d81;stroke-opacity:1" />
    <path
       id="path9"
       style="fill:none;stroke:#160d81;stroke-width:1.79602;stroke-linecap:round;stroke-dasharray:none;stroke-opacity:1"
       d="m 50.00623,19.716537 c 0,3.528519 0.130582,4.426718 0.130582,4.426718 m 0.07421,-4.896649 c -0.336596,0.03363 9.917107,-15.1609283 19.747256,-0.639389 M 30.041722,18.434469 c 0,0 11.84866,-13.9079695 19.837064,0.797742"
       sodipodi:nodetypes="cccccc" />
  </g>
</svg>
