<?xml version="1.0" encoding="UTF-8" standalone="no"?>
<!-- Created with Inkscape (http://www.inkscape.org/) -->

<svg
   width="100mm"
   height="100mm"
   viewBox="0 0 100 100"
   version="1.1"
   id="svg1"
   inkscape:version="1.4.2 (f4327f4, 2025-05-13)"
   sodipodi:docname="informacja_turystyczna.svg"
   xmlns:inkscape="http://www.inkscape.org/namespaces/inkscape"
   xmlns:sodipodi="http://sodipodi.sourceforge.net/DTD/sodipodi-0.dtd"
   xmlns="http://www.w3.org/2000/svg"
   xmlns:svg="http://www.w3.org/2000/svg">
  <sodipodi:namedview
     id="namedview1"
     pagecolor="#ffffff"
     bordercolor="#000000"
     borderopacity="0.25"
     inkscape:showpageshadow="2"
     inkscape:pageopacity="0.0"
     inkscape:pagecheckerboard="true"
     inkscape:deskcolor="#d1d1d1"
     inkscape:document-units="mm"
     inkscape:zoom="0.65121352"
     inkscape:cx="-337.83082"
     inkscape:cy="295.60197"
     inkscape:window-width="1920"
     inkscape:window-height="991"
     inkscape:window-x="2091"
     inkscape:window-y="607"
     inkscape:window-maximized="1"
     inkscape:current-layer="layer1" />
  <defs
     id="defs1">
    <inkscape:path-effect
       effect="fillet_chamfer"
       id="path-effect2"
       is_visible="true"
       lpeversion="1"
       nodesatellites_param="F,0,1,1,0,0,0,1 @ F,0,0,1,0,0.31545669,0,1 @ F,0,0,1,0,2.8959303,0,1 @ F,0,0,1,0,2.8281666,0,1 @ F,0,0,1,0,0,0,1"
       radius="0"
       unit="px"
       method="auto"
       mode="F"
       chamfer_steps="1"
       flexible="false"
       use_knot_distance="true"
       apply_no_radius="true"
       apply_with_radius="true"
       only_selected="false"
       hide_knots="false" />
  </defs>
  <g
     inkscape:label="Warstwa 1"
     inkscape:groupmode="layer"
     id="layer1">
    <g
       id="g2"
       transform="matrix(0.97194858,0,0,0.97194858,-94.20163,-150.15472)">
      <path
         id="path1-8"
         style="fill:#000000;stroke:#000000;stroke-width:4.30001;stroke-linecap:round"
         d="m 148.36317,158.63336 a 35.144321,35.144321 0 0 0 -35.1441,35.1441 35.144321,35.144321 0 0 0 35.1441,35.14412 35.144321,35.144321 0 0 0 35.14463,-35.14412 35.144321,35.144321 0 0 0 -35.14463,-35.1441 z m 5.2e-4,3.35173 a 31.792406,31.792406 0 0 1 31.79237,31.79237 31.792406,31.792406 0 0 1 -31.79237,31.79238 31.792406,31.792406 0 0 1 -31.79289,-31.79238 31.792406,31.792406 0 0 1 31.79289,-31.79237 z" />
      <path
         id="path2-2"
         style="fill:#000000;stroke:#000000;stroke-width:3.68164;stroke-linecap:round"
         inkscape:transform-center-y="7.0389796"
         d="m 117.45811,210.03387 30.98619,42.23367 30.98568,-42.23367 h -4.01117 a 32.148918,24.386906 0 0 1 -27.13232,11.30552 32.148918,24.386906 0 0 1 -27.13179,-11.30552 z" />
      <path
         style="fill:#000000;fill-opacity:1;stroke:#000000;stroke-width:3.78711;stroke-linecap:round;stroke-opacity:1"
         d="m 116.75409,209.34054 c 20.9533,26.95805 20.9533,26.95805 20.9533,26.95805"
         id="path4-45" />
      <circle
         style="fill:#ffffff;stroke:#ffffff;stroke-width:9.60987"
         id="path3-5"
         cx="148.69476"
         cy="193.47278"
         r="27.721392" />
      <path
         style="fill:#000000;fill-opacity:1;stroke:#000000;stroke-width:3.78711;stroke-linecap:round;stroke-opacity:1"
         d="m 180.49878,208.29104 c -20.95329,26.95805 -20.95329,26.95805 -20.95329,26.95805"
         id="path4-8" />
    </g>
    <path
       style="fill:none;stroke:#000000;stroke-width:10;stroke-linecap:butt;stroke-dasharray:none"
       d="m 40.144003,48.888991 c 0,0 3.13794,-1.676292 6.733803,-3.457 0.15601,-0.07726 0.409079,-0.202558 0.567152,-0.275803 1.322707,-0.612892 2.406525,-0.840489 3.274296,-1.064794 1.48359,-0.383485 2.072204,-0.414767 1.702118,0.986791 -2.017209,7.639383 -7.809713,29.366088 -4.97898,35.0251 0.649507,1.29845 3.528077,1.228872 5.04033,0.842929 5.357811,-1.367369 6.986794,-4.3828 6.986794,-4.3828"
       id="path1"
       inkscape:path-effect="#path-effect2"
       inkscape:original-d="m 40.144003,48.888991 c 0,0 3.30396,-1.76498 7.016386,-3.596683 3.148699,-1.553562 5.00185,-0.885944 5.84505,-2.773039 1.172016,-2.62299 -12.08559,39.91896 -3.303863,38.928114 7.592316,-0.856644 9.76794,-4.883969 9.76794,-4.883969"
       sodipodi:nodetypes="csssc"
       transform="matrix(0.81862547,0,0,0.81862547,8.3906066,-4.5475272)" />
    <circle
       style="fill:#000000;stroke:#000000;stroke-width:4.5878;stroke-linecap:round"
       id="path2"
       cx="50"
       cy="17.965345"
       r="3.7564166" />
  </g>
</svg>
